<?xml version="1.0" encoding="utf-8"?>
<!-- Generator: Adobe Illustrator 22.0.1, SVG Export Plug-In . SVG Version: 6.00 Build 0)  -->
<svg version="1.1" baseProfile="basic" id="Camada_1"
	 xmlns="http://www.w3.org/2000/svg" xmlns:xlink="http://www.w3.org/1999/xlink" x="0px" y="0px" viewBox="0 0 1682.2 1084.8"
	 xml:space="preserve">
<g>
	<path fill="#FFFFFF" stroke="#00ACAF" stroke-width="3" stroke-miterlimit="10" d="M757.6,30.9h-70.7c-5.1,0-9.8,2.7-12.4,7.2
		l-35.4,61.2c-2.6,4.4-2.6,9.9,0,14.3l35.3,61.2c2.6,4.4,7.3,7.2,12.4,7.2h70.7c5.1,0,9.8-2.7,12.4-7.2l35.3-61.2
		c2.6-4.4,2.6-9.9,0-14.3L770,38.1C767.4,33.6,762.7,30.9,757.6,30.9z"/>
	<path fill="none" stroke="#216583" stroke-width="2" stroke-linecap="round" stroke-linejoin="round" stroke-miterlimit="10" d="
		M769.9,148.7c0,1.7-1.4,3.1-3,3.1h-34.5c-1.7,0-3.1-1.4-3.1-3.1v-26.9c0-1.7,1.4-3.1,3.1-3.1h34.4c1.7,0,3,1.4,3,3.1
		C769.9,121.8,769.9,148.7,769.9,148.7z"/>
	
		<line fill="none" stroke="#216583" stroke-width="2" stroke-linecap="round" stroke-miterlimit="10" x1="749.6" y1="132.2" x2="749.6" y2="141.8"/>
	<circle stroke="#216583" stroke-width="2" stroke-miterlimit="10" cx="749.6" cy="131.8" r="1.8"/>
	<path fill="none" stroke="#216583" stroke-width="2" stroke-miterlimit="10" d="M762,118.5v-5.4c0-5.1-4.2-9.3-9.3-9.3h-6
		c-5.1,0-9.3,4.2-9.3,9.3v5.4"/>
	<circle stroke="#216583" stroke-width="2" stroke-miterlimit="10" cx="692.5" cy="72.2" r="1.3"/>
	<circle stroke="#216583" stroke-width="2" stroke-miterlimit="10" cx="692.5" cy="99.4" r="1.3"/>
	<circle stroke="#216583" stroke-width="2" stroke-miterlimit="10" cx="692.5" cy="126.8" r="1.3"/>
	<path fill="none" stroke="#216583" stroke-width="2" stroke-linejoin="round" stroke-miterlimit="10" d="M677.3,78.9V63.4
		c0-2.7,2.2-4.9,4.9-4.9h62.4c2.7,0,4.9,2.2,4.9,4.9V96"/>
	<polyline fill="none" stroke="#216583" stroke-width="2" stroke-miterlimit="10" points="677.3,106.4 677.3,85.8 749.4,85.8 	"/>
	<path fill="none" stroke="#216583" stroke-width="2" stroke-miterlimit="10" d="M721.5,140.6h-39.3c-2.7,0-4.9-2.2-4.9-4.9v-22.6
		h3.3h43"/>
</g>
<polygon fill="#00ACAF" points="856.3,492.5 844.5,492.5 838.7,502.6 844.5,512.8 856.3,512.8 862.2,502.6 "/>
<path fill="none" stroke="#00ACAF" stroke-width="3" stroke-miterlimit="10" d="M722.1,182.6c-8.8,182.2,97.2,142.2,126.9,321.6"/>
<polygon fill="#00ACAF" points="789.9,553.7 778.1,553.7 772.3,563.8 778.1,574 789.9,574 795.8,563.8 "/>
<g>
	<path fill="#FFFFFF" stroke="#00ACAF" stroke-width="3" stroke-miterlimit="10" d="M602.4,236.5h-70.7c-5.1,0-9.8,2.7-12.4,7.2
		l-35.4,61.2c-2.6,4.4-2.6,9.9,0,14.3l35.3,61.2c2.6,4.4,7.3,7.2,12.4,7.2h70.7c5.1,0,9.8-2.7,12.4-7.2l35.3-61.2
		c2.6-4.4,2.6-9.9,0-14.3l-35.2-61.2C612.2,239.2,607.5,236.5,602.4,236.5z"/>
	<g>
		<path fill="none" stroke="#216583" stroke-width="2" stroke-linecap="round" stroke-linejoin="round" stroke-miterlimit="10" d="
			M540.8,341.5h68.4c2.4,0,4.5-1.8,4.8-4.2l6.6-46.6c0.3-2.2-1.3-4.2-3.6-4.2h-69.6l32.2,29.7l38.3-27.7"/>
		
			<line fill="none" stroke="#216583" stroke-width="2" stroke-linecap="round" stroke-linejoin="round" stroke-miterlimit="10" x1="562.1" y1="327" x2="528.5" y2="327"/>
		
			<line fill="none" stroke="#216583" stroke-width="2" stroke-linecap="round" stroke-linejoin="round" stroke-miterlimit="10" x1="554.6" y1="314.7" x2="511.3" y2="314.7"/>
		
			<line fill="none" stroke="#216583" stroke-width="2" stroke-linecap="round" stroke-linejoin="round" stroke-miterlimit="10" x1="543.9" y1="302.4" x2="524.1" y2="302.4"/>
	</g>
</g>
<path fill="none" stroke="#00ACAF" stroke-width="3" stroke-miterlimit="10" d="M630.3,353.4c133.2,57.5,80.2,144.4,153.8,210.5"/>
<g>
	<polygon fill="#00ACAF" points="731.1,657.3 719.3,657.3 713.5,667.4 719.3,677.6 731.1,677.6 737,667.4 	"/>
	<g>
		<path fill="#FFFFFF" stroke="#00ACAF" stroke-width="3" stroke-miterlimit="10" d="M479.3,462.2h-70.7c-5.1,0-9.8,2.7-12.4,7.2
			l-35.4,61.2c-2.6,4.4-2.6,9.9,0,14.3l35.3,61.2c2.6,4.4,7.3,7.2,12.4,7.2h70.7c5.1,0,9.8-2.7,12.4-7.2l35.3-61.2
			c2.6-4.4,2.6-9.9,0-14.3l-35.2-61.2C489.1,464.9,484.4,462.2,479.3,462.2z"/>
		<g>
			<line fill="none" stroke="#216583" stroke-width="2" stroke-miterlimit="10" x1="443.8" y1="499" x2="443.8" y2="479.8"/>
			<polyline fill="none" stroke="#216583" stroke-width="2" stroke-miterlimit="10" points="452.5,485.6 443.8,479.2 435,485.6 			
				"/>
			<line fill="none" stroke="#216583" stroke-width="2" stroke-miterlimit="10" x1="443.8" y1="576.5" x2="443.8" y2="595.7"/>
			<polyline fill="none" stroke="#216583" stroke-width="2" stroke-miterlimit="10" points="435,589.9 443.8,596.3 452.5,589.9 			
				"/>
			<line fill="none" stroke="#216583" stroke-width="2" stroke-miterlimit="10" x1="478.5" y1="520.4" x2="495.6" y2="511.7"/>
			<polyline fill="none" stroke="#216583" stroke-width="2" stroke-miterlimit="10" points="494.2,522.1 496.2,511.5 486.5,506.6 
							"/>
			<line fill="none" stroke="#216583" stroke-width="2" stroke-miterlimit="10" x1="409.2" y1="555.1" x2="392.1" y2="563.7"/>
			<polyline fill="none" stroke="#216583" stroke-width="2" stroke-miterlimit="10" points="393.3,553.4 391.6,564.1 401.1,568.9 
							"/>
			<line fill="none" stroke="#216583" stroke-width="2" stroke-miterlimit="10" x1="409.2" y1="520" x2="392.1" y2="511.5"/>
			<polyline fill="none" stroke="#216583" stroke-width="2" stroke-miterlimit="10" points="401.1,506.2 391.6,511.3 393.5,521.9 
							"/>
			<line fill="none" stroke="#216583" stroke-width="2" stroke-miterlimit="10" x1="478.3" y1="555.3" x2="495.6" y2="563.9"/>
			<polyline fill="none" stroke="#216583" stroke-width="2" stroke-miterlimit="10" points="486.5,569.1 496.2,564.3 494.2,553.6 
							"/>
			<polygon fill="none" stroke="#216583" stroke-width="2" stroke-miterlimit="10" points="443.8,509.1 419.3,521.7 419.3,550.1 
				443.8,564.3 468.4,550.1 468.4,521.7 			"/>
			<line fill="none" stroke="#216583" stroke-width="2" stroke-miterlimit="10" x1="459.5" y1="526.8" x2="443.8" y2="535.3"/>
			<line fill="none" stroke="#216583" stroke-width="2" stroke-miterlimit="10" x1="428.1" y1="526.8" x2="443.8" y2="535.3"/>
			<line fill="none" stroke="#216583" stroke-width="2" stroke-miterlimit="10" x1="443.8" y1="535.7" x2="443.8" y2="553.8"/>
		</g>
	</g>
	<path fill="none" stroke="#00ACAF" stroke-width="3" stroke-miterlimit="10" d="M508.7,576.5c42.9,38,96.2,80.9,216.6,91"/>
</g>
<polygon fill="#00ACAF" points="914.9,473.8 903.1,473.8 897.3,483.9 903.1,494.1 914.9,494.1 920.8,483.9 "/>
<g>
	<path fill="#FFFFFF" stroke="#00ACAF" stroke-width="3" stroke-miterlimit="10" d="M1029.5,25.1h-70.7c-5.1,0-9.8,2.7-12.4,7.2
		L911,93.5c-2.6,4.4-2.6,9.9,0,14.3l35.3,61.2c2.6,4.4,7.3,7.2,12.4,7.2h70.7c5.1,0,9.8-2.7,12.4-7.2l35.3-61.2
		c2.6-4.4,2.6-9.9,0-14.3l-35.2-61.2C1039.3,27.8,1034.6,25.1,1029.5,25.1z"/>
	<g>
		<line fill="none" stroke="#216583" stroke-width="2" stroke-miterlimit="10" x1="973.2" y1="147.3" x2="1014.8" y2="147.3"/>
		<line fill="none" stroke="#216583" stroke-width="2" stroke-miterlimit="10" x1="1005.3" y1="131.4" x2="1005.3" y2="146.5"/>
		<line fill="none" stroke="#216583" stroke-width="2" stroke-miterlimit="10" x1="982.7" y1="131.4" x2="982.7" y2="146.5"/>
		<path fill="none" stroke="#216583" stroke-width="2" stroke-miterlimit="10" d="M1046,126c0,2.7-2.2,4.7-4.7,4.7h-94.3
			c-2.7,0-4.7-2.2-4.7-4.7V64.7c0-2.7,2.2-4.7,4.7-4.7h94.1c2.7,0,4.7,2.2,4.7,4.7L1046,126L1046,126z"/>
		<line fill="none" stroke="#216583" stroke-width="2" stroke-miterlimit="10" x1="977.6" y1="87.3" x2="989.2" y2="91.9"/>
		<path fill="none" stroke="#216583" stroke-width="2" stroke-miterlimit="10" d="M1010.7,87.3c2.5-0.7,4.7-2.5,5.4-5.3
			c1-4.1-1.4-8.1-5.3-9.2c-4.1-1.2-8.1,1.2-9.2,5.3c-0.5,2-0.2,4.1,0.7,5.8"/>
		<path fill="none" stroke="#216583" stroke-width="2" stroke-miterlimit="10" d="M1014.6,100.4c0.3-1,0.5-2.2,0.5-3.4
			c0-7.5-5.9-13.4-13.4-13.4s-13.4,5.9-13.4,13.4c0,6.4,4.6,11.9,10.7,13.2"/>
		<circle fill="none" stroke="#216583" stroke-width="2" stroke-miterlimit="10" cx="1015.6" cy="109" r="8.8"/>
		<circle fill="none" stroke="#216583" stroke-width="2" stroke-miterlimit="10" cx="969.5" cy="84.2" r="8.8"/>
	</g>
</g>
<path fill="none" stroke="#00ACAF" stroke-width="3" stroke-miterlimit="10" d="M997.8,176.2c4.5,88.1-24.2,268.2-83.4,308"/>
<g>
	<polygon fill="#00ACAF" points="718.4,794.1 706.6,794.1 700.8,804.2 706.6,814.4 718.4,814.4 724.3,804.2 	"/>
	<g>
		<path fill="#FFFFFF" stroke="#00ACAF" stroke-width="3" stroke-miterlimit="10" d="M478.4,696.3h-70.7c-5.1,0-9.8,2.7-12.4,7.2
			l-35.4,61.2c-2.6,4.4-2.6,9.9,0,14.3l35.3,61.2c2.6,4.4,7.3,7.2,12.4,7.2h70.7c5.1,0,9.8-2.7,12.4-7.2L526,779
			c2.6-4.4,2.6-9.9,0-14.3l-35.2-61.2C488.2,699,483.5,696.3,478.4,696.3z"/>
		<path fill="none" stroke="#216583" stroke-width="2" stroke-miterlimit="10" d="M468.9,819.5c0,2-1.5,3.8-3.1,3.8h-44.6
			c-1.8,0-3.1-1.6-3.1-3.8V805c0-2,1.5-3.8,3.1-3.8h44.4c1.8,0,3.1,1.6,3.1,3.8v14.5H468.9z"/>
		<line fill="none" stroke="#216583" stroke-width="2" stroke-miterlimit="10" x1="432.6" y1="812" x2="454.2" y2="812"/>
		<path fill="none" stroke="#216583" stroke-width="2" stroke-miterlimit="10" d="M409.3,738.2H395c0,0,12.2,39.7,48.5,39.7
			c36.1,0.2,48.3-39.7,48.3-39.7h-14.3"/>
		<path fill="none" stroke="#216583" stroke-width="2" stroke-miterlimit="10" d="M443,778c-26.6-2.5-26.2-53.4-26.2-53.4h53.1
			c0,0,0.3,51-26.2,53.4H443z"/>
		<path fill="none" stroke="#216583" stroke-width="2" stroke-miterlimit="10" d="M436.9,778.1c0,0,1.2,11.7-8.7,23.1"/>
		<path fill="none" stroke="#216583" stroke-width="2" stroke-miterlimit="10" d="M449.9,778.1c0,0-1.2,11.7,8.7,23.1"/>
	</g>
	<path fill="none" stroke="#00ACAF" stroke-width="3" stroke-miterlimit="10" d="M507.8,812c41.4,23.9,101.2,40.3,204.8-4.6"/>
</g>
<g>
	<polygon fill="#00ACAF" points="741.9,901.8 730.1,901.8 724.3,911.9 730.1,922.1 741.9,922.1 747.8,911.9 	"/>
	<g>
		<path fill="#FFFFFF" stroke="#00ACAF" stroke-width="3" stroke-miterlimit="10" d="M478.3,901.8h-70.7c-5.1,0-9.8,2.7-12.4,7.2
			l-35.4,61.2c-2.6,4.4-2.6,9.9,0,14.3l35.4,61.2c2.6,4.4,7.3,7.2,12.4,7.2h70.7c5.1,0,9.8-2.7,12.4-7.2l35.3-61.2
			c2.6-4.4,2.6-9.9,0-14.3L490.7,909C488.1,904.5,483.4,901.8,478.3,901.8z"/>
		<path fill="none" stroke="#216583" stroke-width="2" stroke-miterlimit="10" d="M489.7,978.7c0,25.7-20.8,46.5-46.5,46.5
			c-25.6,0-46.3-20.8-46.3-46.5s20.7-46.5,46.5-46.5C468.9,932.3,489.7,953.1,489.7,978.7z"/>
		<circle fill="none" stroke="#216583" stroke-width="2" stroke-miterlimit="10" cx="443.2" cy="978.7" r="9.6"/>
		<line fill="none" stroke="#216583" stroke-width="2" stroke-miterlimit="10" x1="449.5" y1="971.1" x2="467" y2="949.8"/>
		<line fill="none" stroke="#216583" stroke-width="2" stroke-miterlimit="10" x1="431" y1="993.5" x2="436.9" y2="986.3"/>
		<path fill="none" stroke="#216583" stroke-width="2" stroke-miterlimit="10" d="M468.3,959.7c4,5.3,6.3,11.9,6.3,19
			c0,4-0.7,7.8-2.1,11.2"/>
		<path fill="none" stroke="#216583" stroke-width="2" stroke-miterlimit="10" d="M413.9,989.9c-1.3-3.5-2.1-7.3-2.1-11.2
			c0-17.3,14-31.3,31.3-31.3c4.8,0,9.4,1.2,13.4,3"/>
	</g>
	<path fill="none" stroke="#00ACAF" stroke-width="3" stroke-miterlimit="10" d="M507.8,938.5c54.9-27.5,104.7,17.8,228.3-26.6"/>
</g>
<polygon fill="#00ACAF" points="939.1,548.8 927.3,548.8 921.5,558.9 927.3,569.1 939.1,569.1 945,558.9 "/>
<g>
	<path fill="#FFFFFF" stroke="#00ACAF" stroke-width="3" stroke-miterlimit="10" d="M1254.9,208.1h-70.7c-5.1,0-9.8,2.7-12.4,7.2
		l-35.4,61.2c-2.6,4.4-2.6,9.9,0,14.3l35.3,61.2c2.6,4.4,7.3,7.2,12.4,7.2h70.7c5.1,0,9.8-2.7,12.4-7.2l35.3-61.2
		c2.6-4.4,2.6-9.9,0-14.3l-35.2-61.2C1264.7,210.8,1260,208.1,1254.9,208.1z"/>
	<g>
		<path fill="none" stroke="#216583" stroke-width="2" stroke-miterlimit="10" d="M1261.8,294.3V248c-35.1,0-42.4-18.4-42.4-18.4
			s-7.4,18.4-42.4,18.4v46.3c0,0-2.8,22.3,42.4,43.5C1264.6,316.5,1261.8,294.3,1261.8,294.3z"/>
		<polyline fill="none" stroke="#216583" stroke-width="2" stroke-miterlimit="10" points="1207.7,276 1219.6,292.7 1240.8,261.1 		
			"/>
		<path fill="none" stroke="#216583" stroke-width="2" stroke-miterlimit="10" d="M1242.4,272.9c1.6,3.3,2.5,7,2.5,10.9
			c0,14-11.4,25.4-25.4,25.4c-14,0-25.4-11.4-25.4-25.4s11.4-25.4,25.4-25.4c4.4,0,8.4,1.1,12.1,3"/>
	</g>
</g>
<path fill="none" stroke="#00ACAF" stroke-width="3" stroke-miterlimit="10" d="M1153.4,320.4c-105.1,54.5-57.1,141.8-221.9,238.6"
	/>
<polygon fill="#00ACAF" points="962.5,612.3 950.7,612.3 944.9,622.4 950.7,632.6 962.5,632.6 968.4,622.4 "/>
<g>
	<path fill="#FFFFFF" stroke="#00ACAF" stroke-width="3" stroke-miterlimit="10" d="M1295.4,427.1h-70.7c-5.1,0-9.8,2.7-12.4,7.2
		l-35.4,61.2c-2.6,4.4-2.6,9.9,0,14.3l35.3,61.2c2.6,4.4,7.3,7.2,12.4,7.2h70.7c5.1,0,9.8-2.7,12.4-7.2l35.3-61.2
		c2.6-4.4,2.6-9.9,0-14.3l-35.2-61.2C1305.2,429.8,1300.5,427.1,1295.4,427.1z"/>
	<path fill="none" stroke="#216583" stroke-width="2" stroke-linecap="round" stroke-linejoin="round" stroke-miterlimit="10" d="
		M1208,485c5.3-16.3,20.3-28.3,38.3-29.3c1,0,1.7,0,2.2,0c20.5,0,38,14.4,42,33.9"/>
	<path fill="none" stroke="#216583" stroke-width="2" stroke-linecap="round" stroke-linejoin="round" stroke-miterlimit="10" d="
		M1216.5,498.1c0.2-16.8,13.4-30.7,30.3-31.7c0.7,0,1.2,0,1.7,0c14.2,0,26.4,9.3,30.7,22.2"/>
	<path fill="none" stroke="#216583" stroke-width="2" stroke-linecap="round" stroke-linejoin="round" stroke-miterlimit="10" d="
		M1221.7,516.7c4.7-5.4,5.6-14.1,5.4-17.3c-0.5-11.7,8.5-21.7,20.2-22.4c0.3,0,0.7,0,1,0c9.2,0,17.1,5.8,20.2,14.1"/>
	<path fill="none" stroke="#216583" stroke-width="2" stroke-linecap="round" stroke-linejoin="round" stroke-miterlimit="10" d="
		M1251.6,530.1c-1.5,2.7-3.6,5.6-5.8,8.1"/>
	<path fill="none" stroke="#216583" stroke-width="2" stroke-linecap="round" stroke-linejoin="round" stroke-miterlimit="10" d="
		M1226.7,526.9c12-9.7,11.4-27.6,11.4-27.8c-0.3-5.9,4.2-10.8,10.2-11.2c5.9-0.3,10.8,4.1,11.2,10"/>
	<path fill="none" stroke="#216583" stroke-width="2" stroke-linecap="round" stroke-linejoin="round" stroke-miterlimit="10" d="
		M1248.7,498.4c0,0,1.4,23.4-15.3,36.8"/>
	
		<line fill="none" stroke="#216583" stroke-width="2" stroke-linecap="round" stroke-linejoin="round" stroke-miterlimit="10" x1="1296.5" y1="538.2" x2="1307" y2="550.4"/>
	
		<circle fill="none" stroke="#216583" stroke-width="2" stroke-linecap="round" stroke-linejoin="round" stroke-miterlimit="10" cx="1281.7" cy="520.3" r="23.2"/>
	<path fill="none" stroke="#216583" stroke-width="2" stroke-linecap="round" stroke-linejoin="round" stroke-miterlimit="10" d="
		M1269,520.8c-0.3-6.9,5.1-13.1,12-13.4"/>
</g>
<path fill="none" stroke="#00ACAF" stroke-width="3" stroke-miterlimit="10" d="M1193.7,540.2c-96.9,58.3-145.9,20-237.1,83.7"/>
<polygon fill="#00ACAF" points="962.5,706.7 950.7,706.7 944.9,716.8 950.7,727 962.5,727 968.4,716.8 "/>
<polygon fill="#00ACAF" points="954.9,814.4 943.1,814.4 937.3,824.5 943.1,834.7 954.9,834.7 960.8,824.5 "/>
<g>
	<path fill="#FFFFFF" stroke="#00ACAF" stroke-width="3" stroke-miterlimit="10" d="M1295.4,657.8h-70.7c-5.1,0-9.8,2.7-12.4,7.2
		l-35.4,61.2c-2.6,4.4-2.6,9.9,0,14.3l35.3,61.2c2.6,4.4,7.3,7.2,12.4,7.2h70.7c5.1,0,9.8-2.7,12.4-7.2l35.3-61.2
		c2.6-4.4,2.6-9.9,0-14.3l-35.2-61.2C1305.2,660.5,1300.5,657.8,1295.4,657.8z"/>
	<g>
		<polygon fill="none" stroke="#216583" stroke-width="2" stroke-miterlimit="10" points="1306.4,780.8 1249.9,780.8 1249.9,685.8 
					"/>
		<polygon fill="none" stroke="#216583" stroke-width="2" stroke-miterlimit="10" points="1265.5,765.3 1265.5,742.5 1278.9,765.3 
					"/>
		<line fill="none" stroke="#216583" stroke-width="2" stroke-miterlimit="10" x1="1257.6" y1="710.9" x2="1250.4" y2="710.9"/>
		<line fill="none" stroke="#216583" stroke-width="2" stroke-miterlimit="10" x1="1257.6" y1="722.5" x2="1250.4" y2="722.5"/>
		<line fill="none" stroke="#216583" stroke-width="2" stroke-miterlimit="10" x1="1257.6" y1="734.2" x2="1250.4" y2="734.2"/>
		<line fill="none" stroke="#216583" stroke-width="2" stroke-miterlimit="10" x1="1257.6" y1="746.1" x2="1250.4" y2="746.1"/>
		<line fill="none" stroke="#216583" stroke-width="2" stroke-miterlimit="10" x1="1257.6" y1="757.8" x2="1250.4" y2="757.8"/>
		<line fill="none" stroke="#216583" stroke-width="2" stroke-miterlimit="10" x1="1257.6" y1="769.5" x2="1250.4" y2="769.5"/>
		<line fill="none" stroke="#216583" stroke-width="2" stroke-miterlimit="10" x1="1230.6" y1="768.1" x2="1219.7" y2="768.1"/>
		<path fill="none" stroke="#216583" stroke-width="2" stroke-miterlimit="10" d="M1231.4,686.4h-12.5c-3,0-5.5,2.5-5.5,5.5v6.2
			h23.4v-6.2C1236.8,688.7,1234.3,686.4,1231.4,686.4z"/>
		<polyline fill="none" stroke="#216583" stroke-width="2" stroke-miterlimit="10" points="1236.7,705.2 1236.7,755.9 1225,780.8 
			1213.5,755.9 1213.5,704.9 		"/>
		<line fill="none" stroke="#216583" stroke-width="2" stroke-miterlimit="10" x1="1225.1" y1="754.3" x2="1225.1" y2="704.9"/>
		<line fill="none" stroke="#216583" stroke-width="2" stroke-miterlimit="10" x1="1236.5" y1="754.3" x2="1213.6" y2="754.3"/>
	</g>
</g>
<path fill="none" stroke="#00ACAF" stroke-width="3" stroke-miterlimit="10" d="M1194.7,771.4c-87.8,29.5-158.6-102.3-241.8-52.9"/>
<path fill="none" stroke="#00ACAF" stroke-width="3" stroke-miterlimit="10" d="M1194.7,930.7c-60.5-33.5-220.9-3.5-245.6-103.1"/>
<text transform="matrix(1 0 0 1 316.9865 113.0679)" fill="#216583" font-family="'Kanit',sans-serif" font-size="36px">Adequado à LGPD</text>
<text transform="matrix(1 0 0 1 106.3395 293.0085)"><tspan x="0" y="0" fill="#216583" font-family="'Kanit',sans-serif" font-size="36px">Mailings e disparador</tspan><tspan x="53.5" y="43.2" fill="#216583" font-family="'Kanit',sans-serif" font-size="36px">combo de sucesso</tspan></text>
<text transform="matrix(1 0 0 1 100.0782 525.4446)"><tspan x="0" y="0" fill="#216583" font-family="'Kanit',sans-serif" font-size="36px">Bye bye monte</tspan><tspan x="27.7" y="43.2" fill="#216583" font-family="'Kanit',sans-serif" font-size="36px">de softwares</tspan></text>
<text transform="matrix(1 0 0 1 1332.4469 292.7002)" fill="#216583" font-family="'Kanit',sans-serif" font-size="36px">Segurança digital</text>
<text transform="matrix(1 0 0 1 1103.1847 103.7375)" fill="#216583" font-family="'Kanit',sans-serif" font-size="36px">Quick and easy</text>
<text transform="matrix(1 0 0 1 1364.8712 507.3743)" fill="#216583" font-family="'Kanit',sans-serif" font-size="36px">Mini Google</text>
<text transform="matrix(1 0 0 1 1364.8712 727.05)"><tspan x="0" y="0" fill="#216583" font-family="'Kanit',sans-serif" font-size="36px">(Visual x edição)</tspan><tspan x="0" y="43.2" fill="#216583" font-family="'Kanit',sans-serif" font-size="36px">= Conteúdo</tspan></text>
<g>
	<path fill="#FFFFFF" stroke="#00ACAF" stroke-width="3" stroke-miterlimit="10" d="M1295.4,893.1h-70.7c-5.1,0-9.8,2.7-12.4,7.2
		l-35.4,61.2c-2.6,4.4-2.6,9.9,0,14.3l35.3,61.2c2.6,4.4,7.3,7.2,12.4,7.2h70.7c5.1,0,9.8-2.7,12.4-7.2l35.3-61.2
		c2.6-4.4,2.6-9.9,0-14.3l-35.2-61.2C1305.2,895.8,1300.5,893.1,1295.4,893.1z"/>
	<g>
		
			<polyline fill="none" stroke="#216583" stroke-width="2" stroke-linecap="round" stroke-linejoin="round" stroke-miterlimit="10" points="
			1228.7,952 1236.7,982.5 1244.4,956 1252.3,983.1 1260.1,952 		"/>
		<path fill="none" stroke="#216583" stroke-width="2" stroke-linecap="round" stroke-linejoin="round" stroke-miterlimit="10" d="
			M1267.4,1011.1l-46.7-8.7c-1.5-0.3-2.5-1.6-2.5-3.1v-63.2c0-1.5,1.1-2.8,2.6-3.1l46.7-8.5c1.9-0.3,3.7,1.1,3.7,3.1v80.4
			C1271.1,1010,1269.3,1011.5,1267.4,1011.1z"/>
		<path fill="none" stroke="#216583" stroke-width="2" stroke-linecap="round" stroke-linejoin="round" stroke-miterlimit="10" d="
			M1271.1,936.6h31.8c1.3,0,2.3,1.1,2.3,2.3v57.6c0,1.3-1.1,2.3-2.3,2.3h-31.8"/>
		
			<line fill="none" stroke="#216583" stroke-width="2" stroke-linecap="round" stroke-linejoin="round" stroke-miterlimit="10" x1="1292.9" y1="949" x2="1271.1" y2="949"/>
		
			<line fill="none" stroke="#216583" stroke-width="2" stroke-linecap="round" stroke-linejoin="round" stroke-miterlimit="10" x1="1292.9" y1="958.4" x2="1271.1" y2="958.4"/>
		
			<line fill="none" stroke="#216583" stroke-width="2" stroke-linecap="round" stroke-linejoin="round" stroke-miterlimit="10" x1="1292.9" y1="967.8" x2="1271.1" y2="967.8"/>
		
			<line fill="none" stroke="#216583" stroke-width="2" stroke-linecap="round" stroke-linejoin="round" stroke-miterlimit="10" x1="1280.3" y1="977.2" x2="1271.1" y2="977.2"/>
		
			<line fill="none" stroke="#216583" stroke-width="2" stroke-linecap="round" stroke-linejoin="round" stroke-miterlimit="10" x1="1292.9" y1="977.2" x2="1286.6" y2="977.2"/>
		
			<line fill="none" stroke="#216583" stroke-width="2" stroke-linecap="round" stroke-linejoin="round" stroke-miterlimit="10" x1="1292.9" y1="986.6" x2="1271.1" y2="986.6"/>
	</g>
</g>
<text transform="matrix(1 0 0 1 1364.8712 962.387)"><tspan x="0" y="0" fill="#216583" font-family="'Kanit',sans-serif" font-size="36px">upload do release</tspan><tspan x="0" y="43.2" fill="#216583" font-family="'Kanit',sans-serif" font-size="36px">direto do word</tspan></text>
<text transform="matrix(1 0 0 1 77.0001 966.582)"><tspan x="0" y="0" fill="#216583" font-family="'Kanit',sans-serif" font-size="36px">Funciona online</tspan><tspan x="-28.7" y="43.2" fill="#216583" font-family="'Kanit',sans-serif" font-size="36px">no seu navegador</tspan></text>
<text transform="matrix(1 0 0 1 92.6993 758.0105)"><tspan x="0" y="0" fill="#216583" font-family="'Kanit',sans-serif" font-size="36px">Maior banco de</tspan><tspan x="-36.4" y="43.2" fill="#216583" font-family="'Kanit',sans-serif" font-size="36px">contatos nacional</tspan></text>
</svg>
